<mxfile host="app.diagrams.net" agent="Mozilla/5.0 (Windows NT 10.0; Win64; x64) AppleWebKit/537.36 (KHTML, like Gecko) Chrome/130.0.0.0 Safari/537.36" version="24.8.3">
  <diagram name="Pagina-1" id="oWQfbn6Og3V313NsqIGE">
    <mxGraphModel dx="498" dy="256" grid="1" gridSize="10" guides="1" tooltips="1" connect="1" arrows="1" fold="1" page="1" pageScale="1" pageWidth="827" pageHeight="1169" math="1" shadow="0">
      <root>
        <mxCell id="0" />
        <mxCell id="1" parent="0" />
        <mxCell id="D0pQpbfVas7TAcJGuE0h-1" value="" style="verticalLabelPosition=bottom;shadow=0;dashed=0;align=center;html=1;verticalAlign=top;shape=mxgraph.electrical.transistors.npn_transistor_5;fillColor=none;fontFamily=Times New Roman;" vertex="1" parent="1">
          <mxGeometry x="290" y="260" width="40" height="80" as="geometry" />
        </mxCell>
        <mxCell id="D0pQpbfVas7TAcJGuE0h-2" value="" style="verticalLabelPosition=bottom;shadow=0;dashed=0;align=center;html=1;verticalAlign=top;shape=mxgraph.electrical.transistors.npn_transistor_5;fillColor=none;fontFamily=Times New Roman;" vertex="1" parent="1">
          <mxGeometry x="290" y="350" width="40" height="80" as="geometry" />
        </mxCell>
        <mxCell id="D0pQpbfVas7TAcJGuE0h-6" style="edgeStyle=orthogonalEdgeStyle;rounded=0;orthogonalLoop=1;jettySize=auto;html=1;endArrow=none;endFill=0;fillColor=none;fontFamily=Times New Roman;" edge="1" parent="1" source="D0pQpbfVas7TAcJGuE0h-4">
          <mxGeometry relative="1" as="geometry">
            <mxPoint x="225" y="370" as="targetPoint" />
          </mxGeometry>
        </mxCell>
        <mxCell id="D0pQpbfVas7TAcJGuE0h-4" value="" style="pointerEvents=1;verticalLabelPosition=bottom;shadow=0;dashed=0;align=center;html=1;verticalAlign=top;shape=mxgraph.electrical.signal_sources.source;aspect=fixed;points=[[0.5,0,0],[1,0.5,0],[0.5,1,0],[0,0.5,0]];elSignalType=dc2;rotation=-180;fillColor=none;fontFamily=Times New Roman;" vertex="1" parent="1">
          <mxGeometry x="210" y="330" width="30" height="30" as="geometry" />
        </mxCell>
        <mxCell id="D0pQpbfVas7TAcJGuE0h-7" value="" style="endArrow=none;html=1;rounded=0;fillColor=none;fontFamily=Times New Roman;" edge="1" parent="1">
          <mxGeometry width="50" height="50" relative="1" as="geometry">
            <mxPoint x="205" y="380" as="sourcePoint" />
            <mxPoint x="245" y="380" as="targetPoint" />
          </mxGeometry>
        </mxCell>
        <mxCell id="D0pQpbfVas7TAcJGuE0h-8" value="" style="endArrow=none;html=1;rounded=0;fillColor=none;fontFamily=Times New Roman;" edge="1" parent="1">
          <mxGeometry width="50" height="50" relative="1" as="geometry">
            <mxPoint x="210" y="390" as="sourcePoint" />
            <mxPoint x="240" y="390" as="targetPoint" />
          </mxGeometry>
        </mxCell>
        <mxCell id="D0pQpbfVas7TAcJGuE0h-9" value="" style="endArrow=none;html=1;rounded=0;fillColor=none;fontFamily=Times New Roman;" edge="1" parent="1">
          <mxGeometry width="50" height="50" relative="1" as="geometry">
            <mxPoint x="220" y="400" as="sourcePoint" />
            <mxPoint x="230" y="400" as="targetPoint" />
          </mxGeometry>
        </mxCell>
        <mxCell id="D0pQpbfVas7TAcJGuE0h-10" style="edgeStyle=orthogonalEdgeStyle;rounded=0;orthogonalLoop=1;jettySize=auto;html=1;entryX=1;entryY=0;entryDx=0;entryDy=0;entryPerimeter=0;endArrow=none;endFill=0;fillColor=none;fontFamily=Times New Roman;" edge="1" parent="1" source="D0pQpbfVas7TAcJGuE0h-4" target="D0pQpbfVas7TAcJGuE0h-1">
          <mxGeometry relative="1" as="geometry">
            <Array as="points">
              <mxPoint x="225" y="250" />
              <mxPoint x="330" y="250" />
            </Array>
          </mxGeometry>
        </mxCell>
        <mxCell id="D0pQpbfVas7TAcJGuE0h-11" style="edgeStyle=orthogonalEdgeStyle;rounded=0;orthogonalLoop=1;jettySize=auto;html=1;exitDx=0;exitDy=0;exitPerimeter=0;entryX=1;entryY=0;entryDx=0;entryDy=0;entryPerimeter=0;endArrow=none;endFill=0;fillColor=none;fontFamily=Times New Roman;" edge="1" parent="1" source="D0pQpbfVas7TAcJGuE0h-21" target="D0pQpbfVas7TAcJGuE0h-2">
          <mxGeometry relative="1" as="geometry" />
        </mxCell>
        <mxCell id="D0pQpbfVas7TAcJGuE0h-20" style="edgeStyle=orthogonalEdgeStyle;rounded=0;orthogonalLoop=1;jettySize=auto;html=1;exitX=1;exitY=0;exitDx=0;exitDy=0;exitPerimeter=0;endArrow=none;endFill=0;fillColor=none;fontFamily=Times New Roman;" edge="1" parent="1" source="D0pQpbfVas7TAcJGuE0h-12">
          <mxGeometry relative="1" as="geometry">
            <mxPoint x="330" y="250" as="targetPoint" />
            <Array as="points">
              <mxPoint x="430" y="250" />
            </Array>
          </mxGeometry>
        </mxCell>
        <mxCell id="D0pQpbfVas7TAcJGuE0h-12" value="" style="verticalLabelPosition=bottom;shadow=0;dashed=0;align=center;html=1;verticalAlign=top;shape=mxgraph.electrical.transistors.npn_transistor_5;fillColor=none;fontFamily=Times New Roman;" vertex="1" parent="1">
          <mxGeometry x="390" y="250" width="40" height="80" as="geometry" />
        </mxCell>
        <mxCell id="D0pQpbfVas7TAcJGuE0h-13" value="" style="verticalLabelPosition=bottom;shadow=0;dashed=0;align=center;html=1;verticalAlign=top;shape=mxgraph.electrical.transistors.npn_transistor_5;fillColor=none;fontFamily=Times New Roman;" vertex="1" parent="1">
          <mxGeometry x="390" y="340" width="40" height="80" as="geometry" />
        </mxCell>
        <mxCell id="D0pQpbfVas7TAcJGuE0h-14" style="edgeStyle=orthogonalEdgeStyle;rounded=0;orthogonalLoop=1;jettySize=auto;html=1;exitX=1;exitY=1;exitDx=0;exitDy=0;exitPerimeter=0;entryX=1;entryY=1;entryDx=0;entryDy=0;entryPerimeter=0;endArrow=none;endFill=0;fillColor=none;fontFamily=Times New Roman;" edge="1" parent="1" source="D0pQpbfVas7TAcJGuE0h-2" target="D0pQpbfVas7TAcJGuE0h-13">
          <mxGeometry relative="1" as="geometry">
            <Array as="points">
              <mxPoint x="330" y="440" />
              <mxPoint x="430" y="440" />
            </Array>
          </mxGeometry>
        </mxCell>
        <mxCell id="D0pQpbfVas7TAcJGuE0h-15" style="edgeStyle=orthogonalEdgeStyle;rounded=0;orthogonalLoop=1;jettySize=auto;html=1;endArrow=none;endFill=0;fillColor=none;fontFamily=Times New Roman;" edge="1" parent="1">
          <mxGeometry relative="1" as="geometry">
            <mxPoint x="390" y="450" as="targetPoint" />
            <mxPoint x="390" y="440" as="sourcePoint" />
          </mxGeometry>
        </mxCell>
        <mxCell id="D0pQpbfVas7TAcJGuE0h-16" value="" style="endArrow=none;html=1;rounded=0;fillColor=none;fontFamily=Times New Roman;" edge="1" parent="1">
          <mxGeometry width="50" height="50" relative="1" as="geometry">
            <mxPoint x="370" y="460" as="sourcePoint" />
            <mxPoint x="410" y="460" as="targetPoint" />
          </mxGeometry>
        </mxCell>
        <mxCell id="D0pQpbfVas7TAcJGuE0h-17" value="" style="endArrow=none;html=1;rounded=0;fillColor=none;fontFamily=Times New Roman;" edge="1" parent="1">
          <mxGeometry width="50" height="50" relative="1" as="geometry">
            <mxPoint x="375" y="470" as="sourcePoint" />
            <mxPoint x="405" y="470" as="targetPoint" />
          </mxGeometry>
        </mxCell>
        <mxCell id="D0pQpbfVas7TAcJGuE0h-18" value="" style="endArrow=none;html=1;rounded=0;fillColor=none;fontFamily=Times New Roman;" edge="1" parent="1">
          <mxGeometry width="50" height="50" relative="1" as="geometry">
            <mxPoint x="385" y="480" as="sourcePoint" />
            <mxPoint x="395" y="480" as="targetPoint" />
          </mxGeometry>
        </mxCell>
        <mxCell id="D0pQpbfVas7TAcJGuE0h-19" style="edgeStyle=orthogonalEdgeStyle;rounded=0;orthogonalLoop=1;jettySize=auto;html=1;exitDx=0;exitDy=0;exitPerimeter=0;entryX=1;entryY=1;entryDx=0;entryDy=0;entryPerimeter=0;endArrow=none;endFill=0;fillColor=none;fontFamily=Times New Roman;" edge="1" parent="1" source="D0pQpbfVas7TAcJGuE0h-23" target="D0pQpbfVas7TAcJGuE0h-12">
          <mxGeometry relative="1" as="geometry" />
        </mxCell>
        <mxCell id="D0pQpbfVas7TAcJGuE0h-22" value="" style="edgeStyle=orthogonalEdgeStyle;rounded=0;orthogonalLoop=1;jettySize=auto;html=1;exitX=1;exitY=1;exitDx=0;exitDy=0;exitPerimeter=0;entryDx=0;entryDy=0;entryPerimeter=0;endArrow=none;endFill=0;fillColor=none;fontFamily=Times New Roman;" edge="1" parent="1" source="D0pQpbfVas7TAcJGuE0h-1" target="D0pQpbfVas7TAcJGuE0h-21">
          <mxGeometry relative="1" as="geometry">
            <mxPoint x="330" y="331" as="sourcePoint" />
            <mxPoint x="330" y="359" as="targetPoint" />
          </mxGeometry>
        </mxCell>
        <mxCell id="D0pQpbfVas7TAcJGuE0h-24" value="" style="endArrow=none;html=1;rounded=0;exitDx=0;exitDy=0;exitPerimeter=0;fillColor=none;fontFamily=Times New Roman;" edge="1" parent="1" source="D0pQpbfVas7TAcJGuE0h-21">
          <mxGeometry width="50" height="50" relative="1" as="geometry">
            <mxPoint x="330" y="335" as="sourcePoint" />
            <mxPoint x="490" y="340" as="targetPoint" />
          </mxGeometry>
        </mxCell>
        <mxCell id="D0pQpbfVas7TAcJGuE0h-25" value="" style="endArrow=none;html=1;rounded=0;exitX=0.612;exitY=0.5;exitDx=0;exitDy=0;exitPerimeter=0;fillColor=none;fontFamily=Times New Roman;" edge="1" parent="1">
          <mxGeometry width="50" height="50" relative="1" as="geometry">
            <mxPoint x="430" y="349.5" as="sourcePoint" />
            <mxPoint x="490" y="350" as="targetPoint" />
          </mxGeometry>
        </mxCell>
        <mxCell id="D0pQpbfVas7TAcJGuE0h-26" value="" style="endArrow=none;html=1;rounded=0;fillColor=none;fontFamily=Times New Roman;" edge="1" parent="1">
          <mxGeometry width="50" height="50" relative="1" as="geometry">
            <mxPoint x="490" y="340" as="sourcePoint" />
            <mxPoint x="490" y="300" as="targetPoint" />
          </mxGeometry>
        </mxCell>
        <mxCell id="D0pQpbfVas7TAcJGuE0h-27" value="" style="endArrow=none;html=1;rounded=0;exitX=0.612;exitY=0.5;exitDx=0;exitDy=0;exitPerimeter=0;fillColor=none;fontFamily=Times New Roman;" edge="1" parent="1" target="D0pQpbfVas7TAcJGuE0h-21">
          <mxGeometry width="50" height="50" relative="1" as="geometry">
            <mxPoint x="330" y="335" as="sourcePoint" />
            <mxPoint x="490" y="336" as="targetPoint" />
          </mxGeometry>
        </mxCell>
        <mxCell id="D0pQpbfVas7TAcJGuE0h-21" value="" style="shape=waypoint;sketch=0;fillStyle=solid;size=6;pointerEvents=1;points=[];fillColor=none;resizable=0;rotatable=0;perimeter=centerPerimeter;snapToPoint=1;fontFamily=Times New Roman;" vertex="1" parent="1">
          <mxGeometry x="320" y="330" width="20" height="20" as="geometry" />
        </mxCell>
        <mxCell id="D0pQpbfVas7TAcJGuE0h-28" value="" style="endArrow=none;html=1;rounded=0;fillColor=none;fontFamily=Times New Roman;" edge="1" parent="1">
          <mxGeometry width="50" height="50" relative="1" as="geometry">
            <mxPoint x="490" y="390" as="sourcePoint" />
            <mxPoint x="490" y="350" as="targetPoint" />
          </mxGeometry>
        </mxCell>
        <mxCell id="D0pQpbfVas7TAcJGuE0h-29" value="" style="edgeStyle=orthogonalEdgeStyle;rounded=0;orthogonalLoop=1;jettySize=auto;html=1;exitX=1;exitY=0;exitDx=0;exitDy=0;exitPerimeter=0;entryDx=0;entryDy=0;entryPerimeter=0;endArrow=none;endFill=0;fillColor=none;fontFamily=Times New Roman;" edge="1" parent="1" source="D0pQpbfVas7TAcJGuE0h-13" target="D0pQpbfVas7TAcJGuE0h-23">
          <mxGeometry relative="1" as="geometry">
            <mxPoint x="430" y="349" as="sourcePoint" />
            <mxPoint x="430" y="321" as="targetPoint" />
          </mxGeometry>
        </mxCell>
        <mxCell id="D0pQpbfVas7TAcJGuE0h-23" value="" style="shape=waypoint;sketch=0;fillStyle=solid;size=6;pointerEvents=1;points=[];fillColor=none;resizable=0;rotatable=0;perimeter=centerPerimeter;snapToPoint=1;fontFamily=Times New Roman;" vertex="1" parent="1">
          <mxGeometry x="420" y="340" width="20" height="20" as="geometry" />
        </mxCell>
        <mxCell id="D0pQpbfVas7TAcJGuE0h-31" style="edgeStyle=orthogonalEdgeStyle;rounded=0;orthogonalLoop=1;jettySize=auto;html=1;endArrow=none;endFill=0;fillColor=none;fontFamily=Times New Roman;" edge="1" parent="1" source="D0pQpbfVas7TAcJGuE0h-30">
          <mxGeometry relative="1" as="geometry">
            <mxPoint x="490" y="390" as="targetPoint" />
            <Array as="points">
              <mxPoint x="553" y="390" />
            </Array>
          </mxGeometry>
        </mxCell>
        <mxCell id="D0pQpbfVas7TAcJGuE0h-32" style="edgeStyle=orthogonalEdgeStyle;rounded=0;orthogonalLoop=1;jettySize=auto;html=1;endArrow=none;endFill=0;fillColor=none;fontFamily=Times New Roman;" edge="1" parent="1" source="D0pQpbfVas7TAcJGuE0h-30">
          <mxGeometry relative="1" as="geometry">
            <mxPoint x="490" y="300" as="targetPoint" />
            <Array as="points">
              <mxPoint x="553" y="300" />
            </Array>
          </mxGeometry>
        </mxCell>
        <mxCell id="D0pQpbfVas7TAcJGuE0h-30" value="" style="verticalLabelPosition=bottom;shadow=0;dashed=0;align=center;html=1;verticalAlign=top;strokeWidth=1;shape=rect;rotation=90;fillColor=none;fontFamily=Times New Roman;" vertex="1" parent="1">
          <mxGeometry x="537.5" y="340" width="30" height="10" as="geometry" />
        </mxCell>
        <mxCell id="D0pQpbfVas7TAcJGuE0h-33" value="&lt;svg xmlns=&quot;http://www.w3.org/2000/svg&quot; width=&quot;1.729ex&quot; height=&quot;1.538ex&quot; role=&quot;img&quot; viewBox=&quot;0 -680 764 680&quot; xmlns:xlink=&quot;http://www.w3.org/1999/xlink&quot; style=&quot;vertical-align: 0px;&quot;&gt;&lt;defs&gt;&lt;path id=&quot;MJX-1-TEX-I-1D438&quot; d=&quot;M492 213Q472 213 472 226Q472 230 477 250T482 285Q482 316 461 323T364 330H312Q311 328 277 192T243 52Q243 48 254 48T334 46Q428 46 458 48T518 61Q567 77 599 117T670 248Q680 270 683 272Q690 274 698 274Q718 274 718 261Q613 7 608 2Q605 0 322 0H133Q31 0 31 11Q31 13 34 25Q38 41 42 43T65 46Q92 46 125 49Q139 52 144 61Q146 66 215 342T285 622Q285 629 281 629Q273 632 228 634H197Q191 640 191 642T193 659Q197 676 203 680H757Q764 676 764 669Q764 664 751 557T737 447Q735 440 717 440H705Q698 445 698 453L701 476Q704 500 704 528Q704 558 697 578T678 609T643 625T596 632T532 634H485Q397 633 392 631Q388 629 386 622Q385 619 355 499T324 377Q347 376 372 376H398Q464 376 489 391T534 472Q538 488 540 490T557 493Q562 493 565 493T570 492T572 491T574 487T577 483L544 351Q511 218 508 216Q505 213 492 213Z&quot;&gt;&lt;/path&gt;&lt;/defs&gt;&lt;g stroke=&quot;currentColor&quot; fill=&quot;currentColor&quot; stroke-width=&quot;0&quot; transform=&quot;scale(1,-1)&quot;&gt;&lt;g data-mml-node=&quot;math&quot;&gt;&lt;g data-mml-node=&quot;mi&quot;&gt;&lt;use data-c=&quot;1D438&quot; xlink:href=&quot;#MJX-1-TEX-I-1D438&quot;&gt;&lt;/use&gt;&lt;/g&gt;&lt;/g&gt;&lt;/g&gt;&lt;/svg&gt;" style="text;html=1;align=center;verticalAlign=middle;whiteSpace=wrap;rounded=0;fillColor=none;fontFamily=Times New Roman;" vertex="1" parent="1">
          <mxGeometry x="160" y="330" width="60" height="30" as="geometry" />
        </mxCell>
        <mxCell id="D0pQpbfVas7TAcJGuE0h-35" value="A" style="text;html=1;align=center;verticalAlign=middle;whiteSpace=wrap;rounded=0;fontSize=9;fillColor=none;fontFamily=Times New Roman;" vertex="1" parent="1">
          <mxGeometry x="250" y="285" width="60" height="30" as="geometry" />
        </mxCell>
        <mxCell id="D0pQpbfVas7TAcJGuE0h-36" value="NOT A" style="text;html=1;align=center;verticalAlign=middle;whiteSpace=wrap;rounded=0;fontSize=9;fillColor=none;fontFamily=Times New Roman;" vertex="1" parent="1">
          <mxGeometry x="240" y="375" width="60" height="30" as="geometry" />
        </mxCell>
        <mxCell id="D0pQpbfVas7TAcJGuE0h-37" value="NOT B" style="text;html=1;align=center;verticalAlign=middle;whiteSpace=wrap;rounded=0;fontSize=9;fillColor=none;fontFamily=Times New Roman;" vertex="1" parent="1">
          <mxGeometry x="340" y="365" width="60" height="30" as="geometry" />
        </mxCell>
        <mxCell id="D0pQpbfVas7TAcJGuE0h-38" value="B" style="text;html=1;align=center;verticalAlign=middle;whiteSpace=wrap;rounded=0;fontSize=9;fillColor=none;fontFamily=Times New Roman;" vertex="1" parent="1">
          <mxGeometry x="350" y="275" width="60" height="30" as="geometry" />
        </mxCell>
        <mxCell id="D0pQpbfVas7TAcJGuE0h-39" value="\(v_1(t)\)" style="text;html=1;align=center;verticalAlign=middle;whiteSpace=wrap;rounded=0;fontSize=9;fillColor=none;fontFamily=Times New Roman;" vertex="1" parent="1">
          <mxGeometry x="310" y="375" width="60" height="30" as="geometry" />
        </mxCell>
        <mxCell id="D0pQpbfVas7TAcJGuE0h-40" value="\(v_2(t)\)" style="text;html=1;align=center;verticalAlign=middle;whiteSpace=wrap;rounded=0;fontSize=9;fillColor=none;fontFamily=Times New Roman;" vertex="1" parent="1">
          <mxGeometry x="400" y="365" width="60" height="30" as="geometry" />
        </mxCell>
        <mxCell id="D0pQpbfVas7TAcJGuE0h-41" value="\(V(t)=v_1(t)+v_2(t)\)" style="text;html=1;align=center;verticalAlign=middle;whiteSpace=wrap;rounded=0;fontSize=9;fillColor=none;fontFamily=Times New Roman;" vertex="1" parent="1">
          <mxGeometry x="580" y="330" width="60" height="30" as="geometry" />
        </mxCell>
        <mxCell id="D0pQpbfVas7TAcJGuE0h-42" value="carico" style="text;html=1;align=center;verticalAlign=middle;whiteSpace=wrap;rounded=0;fontSize=9;fillColor=none;fontFamily=Times New Roman;" vertex="1" parent="1">
          <mxGeometry x="580" y="310" width="60" height="30" as="geometry" />
        </mxCell>
      </root>
    </mxGraphModel>
  </diagram>
</mxfile>
